# xmcd
#
# Track frame offsets: 
#        150
#        25157
#        30195
#        52491
#        69218
#        95685
#        132454
#
# Disc length: 1940 seconds
#
# Revision: 1
# Processed by: cddbd v1.5.2PL0 Copyright (c) Steve Scherf et al.
# Submitted via: ExactAudioCopyFreeDBPlugin 1.0
#
DISCID=5b079207
DTITLE=Isengard - Høstmørke
DYEAR=1994
DGENRE=Black Metal
TTITLE0=Neslepaks
TTITLE1=Landet Og Havet
TTITLE2=I Kamp Med Kvitekrist
TTITLE3=I Ei Gran Borti Nordre Åsen
TTITLE4=Over De Syngende Øde Moer
TTITLE5=Thornspawn Chalice
TTITLE6=Total Death
EXTD=
EXTT0=
EXTT1=
EXTT2=
EXTT3=
EXTT4=
EXTT5=
EXTT6=
PLAYORDER=
